<svg xmlns="http://www.w3.org/2000/svg" viewBox="0 0 205.37 52.75"><defs><style>.cls-1{fill:#ff6700;}.cls-2{fill:#0063ab;}.cls-3{fill:#202124;}</style></defs><title>cd-logo-side</title><g id="Layer_2" data-name="Layer 2"><g id="Layer_1-2" data-name="Layer 1"><path class="cls-1" d="M31.83,25.57a13.34,13.34,0,1,1,0-11.54l5.6-3.23a19.8,19.8,0,1,0,0,18Z"/><path class="cls-2" d="M43.57,52.75V28.8H50.2V46.3a13.35,13.35,0,1,0-12-19.12L32.57,24A19.8,19.8,0,1,1,50.2,52.75Z"/><path class="cls-3" d="M83.23,25.86c0-4.59,2.45-8.13,7.41-8.13a6.7,6.7,0,0,1,6.62,4.38l-1.86.74c-.72-2.28-2.4-3.23-4.78-3.23-3.67,0-5.42,2.55-5.42,6.16s1.59,6.34,5.39,6.34a4.78,4.78,0,0,0,4.86-3.27l1.83.75A6.89,6.89,0,0,1,90.59,34C85.69,34,83.23,30.44,83.23,25.86Z"/><path class="cls-3" d="M99.69,22.59h1.86v2.2a3.48,3.48,0,0,1,3.31-2.39,2.85,2.85,0,0,1,1.85.62l-.87,1.57a2.64,2.64,0,0,0-1.26-.34c-1.42,0-3,1.18-3,4.16v5.4H99.69Z"/><path class="cls-3" d="M107.14,28.17a5.54,5.54,0,1,1,11.07,0,5.54,5.54,0,1,1-11.07,0Zm9.09,0c0-2.25-1.26-4.12-3.57-4.12s-3.55,1.86-3.55,4.12,1.25,4.18,3.55,4.18S116.23,30.44,116.23,28.17Z"/><path class="cls-3" d="M119.11,22.59h2l2.27,8.34,2.71-8.34h1.69l2.71,8.32,2.29-8.32h2l-3.35,11.22h-1.75L127,25.24l-2.79,8.57h-1.75Z"/><path class="cls-3" d="M135.85,28.2c0-3.16,1.87-5.8,4.91-5.8a4.17,4.17,0,0,1,3.76,2.21V17.94h1.93V33.81h-1.78l-.08-2.12A4.13,4.13,0,0,1,140.8,34C137.72,34,135.85,31.36,135.85,28.2Zm8.82,0c0-2.31-1.24-4.07-3.42-4.07s-3.47,1.79-3.47,4.07,1.27,4.07,3.47,4.07S144.67,30.51,144.67,28.2Z"/><path class="cls-3" d="M150.26,17.94h4.4c5.3,0,8.14,2.89,8.14,8.06,0,4.95-2.92,7.81-8.17,7.81h-4.37Zm4.18,14c4,0,6.38-1.82,6.38-6.07s-1.93-6.16-6.2-6.16h-2.38V32Z"/><path class="cls-3" d="M164.9,28.17a5.54,5.54,0,1,1,11.07,0,5.54,5.54,0,1,1-11.07,0Zm9.1,0c0-2.25-1.26-4.12-3.57-4.12s-3.55,1.86-3.55,4.12,1.24,4.18,3.55,4.18S174,30.44,174,28.17Z"/><path class="cls-3" d="M178.37,17.94h2v2.38h-2Zm0,4.65h1.89V33.81h-1.89Z"/><path class="cls-3" d="M183.6,22.59h1.9V24.3a3.94,3.94,0,0,1,3.44-1.9c2.73,0,3.93,2,4,4.43v7H191V27.17c0-1.85-.88-3-2.58-3s-2.92,1.07-2.92,3.18v6.47h-1.9Z"/><path class="cls-3" d="M205.12,35.5c0,2.31-2,3.52-4.77,3.52-3.3,0-5.16-1.61-5.16-3.86a2.25,2.25,0,0,1,0-.49l1.55-1.39a2.27,2.27,0,0,1-1.34-2.16,2.57,2.57,0,0,1,1.16-2.22,3.77,3.77,0,0,1-1-2.56A4.07,4.07,0,0,1,200,22.4a4.78,4.78,0,0,1,2.77.84l1.6-1.38,1,1.24-1.54,1.28a3.89,3.89,0,0,1,.56,2.06c0,2.37-1.92,3.9-4.32,3.9a5,5,0,0,1-2.3-.53,1,1,0,0,0-.69,1c0,1.13,1.49,1.26,3.49,1.54C202.78,32.65,205.12,33,205.12,35.5Zm-1.81.2c0-1.24-1.35-1.45-3.4-1.71-.62-.08-1.3-.16-2-.3l-1,1.38,0,.34c.23,1.41,1.6,2.12,3.41,2.12S203.31,36.87,203.31,35.7Zm-5.7-9.35a2.45,2.45,0,0,0,4.89,0,2.31,2.31,0,0,0-2.42-2.49A2.34,2.34,0,0,0,197.61,26.35Z"/></g></g></svg>