<svg xmlns="http://www.w3.org/2000/svg" viewBox="0 0 125 128.51"><defs><style>.cls-1{fill:#ff6700;}.cls-2{fill:#0063ab;}.cls-3{fill:#202124;}</style></defs><title>cd-logo-name</title><g id="Layer_2" data-name="Layer 2"><g id="Layer_1-2" data-name="Layer 1"><path class="cls-1" d="M56.85,45.66a23.83,23.83,0,1,1,0-20.6l10-5.77a35.36,35.36,0,1,0,0,32.14Z"/><path class="cls-2" d="M77.8,94.2V51.43H89.64V82.67A23.83,23.83,0,1,0,68.15,48.54l-10-5.77A35.35,35.35,0,1,1,89.64,94.2Z"/><path class="cls-3" d="M1.31,115.28c0-4.62,2.46-8.18,7.45-8.18a6.75,6.75,0,0,1,6.65,4.41l-1.87.74C12.81,110,11.13,109,8.74,109c-3.69,0-5.46,2.56-5.46,6.2s1.61,6.36,5.42,6.36a4.8,4.8,0,0,0,4.89-3.28l1.84.75a6.92,6.92,0,0,1-6.73,4.43C3.78,123.46,1.31,119.88,1.31,115.28Z"/><path class="cls-3" d="M17.85,112h1.87v2.21a3.5,3.5,0,0,1,3.33-2.4,2.9,2.9,0,0,1,1.86.62L24,114a2.62,2.62,0,0,0-1.27-.34c-1.42,0-3.05,1.19-3.05,4.18v5.43H17.85Z"/><path class="cls-3" d="M25.34,117.6a5.57,5.57,0,1,1,11.13,0,5.57,5.57,0,1,1-11.13,0Zm9.14,0c0-2.27-1.27-4.14-3.59-4.14s-3.57,1.86-3.57,4.14,1.26,4.2,3.57,4.2S34.48,119.88,34.48,117.6Z"/><path class="cls-3" d="M37.37,112h2l2.28,8.38L44.42,112h1.7l2.72,8.37,2.3-8.37h2l-3.36,11.28H48.06l-2.79-8.62-2.8,8.62H40.71Z"/><path class="cls-3" d="M54.19,117.62c0-3.17,1.89-5.82,5-5.82A4.18,4.18,0,0,1,62.91,114v-6.7h1.94v16H63.06L63,121.14a4.16,4.16,0,0,1-3.82,2.32C56.08,123.46,54.19,120.81,54.19,117.62Zm8.87,0c0-2.31-1.25-4.08-3.44-4.08s-3.49,1.79-3.49,4.08,1.28,4.1,3.49,4.1S63.06,120,63.06,117.62Z"/><path class="cls-3" d="M68.69,107.32H73.1c5.33,0,8.18,2.9,8.18,8.09,0,5-2.93,7.86-8.2,7.86H68.69Zm4.19,14.12c4,0,6.42-1.83,6.42-6.11s-2-6.18-6.23-6.18h-2.4v12.29Z"/><path class="cls-3" d="M83.4,117.6a5.57,5.57,0,1,1,11.13,0,5.57,5.57,0,1,1-11.13,0Zm9.14,0c0-2.27-1.26-4.14-3.59-4.14s-3.57,1.86-3.57,4.14,1.26,4.2,3.57,4.2S92.54,119.88,92.54,117.6Z"/><path class="cls-3" d="M96.94,107.32h2v2.39h-2ZM97,112h1.91v11.28H97Z"/><path class="cls-3" d="M102.2,112h1.9v1.72a3.94,3.94,0,0,1,3.46-1.91c2.74,0,4,2,4,4.45v7h-1.91V116.6c0-1.87-.89-3-2.59-3s-2.94,1.07-2.94,3.2v6.5h-1.9Z"/><path class="cls-3" d="M123.82,125c0,2.33-2,3.55-4.79,3.55-3.32,0-5.19-1.63-5.19-3.89a3.11,3.11,0,0,1,0-.49l1.56-1.39a2.3,2.3,0,0,1-1.35-2.18,2.59,2.59,0,0,1,1.16-2.22,3.86,3.86,0,0,1-1-2.58,4.09,4.09,0,0,1,4.39-4,4.73,4.73,0,0,1,2.79.85l1.6-1.39,1,1.24-1.55,1.29a3.82,3.82,0,0,1,.57,2.07c0,2.39-1.93,3.92-4.35,3.92a5,5,0,0,1-2.3-.53,1,1,0,0,0-.7,1c0,1.14,1.5,1.27,3.51,1.55C121.48,122.11,123.82,122.49,123.82,125Zm-1.81.2c0-1.24-1.36-1.45-3.42-1.71-.63-.08-1.31-.16-2-.31l-1.06,1.39,0,.34c.23,1.42,1.61,2.14,3.42,2.14S122,126.34,122,125.16Zm-5.74-9.39a2.46,2.46,0,1,0,2.48-2.48A2.35,2.35,0,0,0,116.27,115.77Z"/></g></g></svg>